<svg id="Calque_1" data-name="Calque 1" xmlns="http://www.w3.org/2000/svg" viewBox="0 0 1080 1080"><defs><style>.cls-1{fill:#c8165a;}.cls-2{fill:#197ce2;}.cls-3{fill:#ed9932;}.cls-4{fill:#e2eee8;}.cls-5{fill:#70d1f7;}</style></defs><path class="cls-1" d="M617.75,878.05c3.26-11.95,20-25,8.1-35.12-13.13-11.18-31.61-3.72-45.7,5.33-69,44.32-146.67,73.27-219.64,110.55-24.35,12.44-50.67,11.11-75.66-4.41-18.87-11.72-36.59-25.79-59.4-31.4-7.09-1.75-14.79-7.64-13.62-15.19.59-3.82,9-8.78,14.4-9.37,41.37-4.58,75.16-28.27,113.75-39.57-2,26.59,13.6,22.38,31.71,17.26,56.7-16,102.32-52.74,156.17-74.26,28-11.18,53-29.18,81-40.38,56.7-22.67,76.27-73.46,104.62-117.9,4.22,37.81,0,74.73-15.65,109.79-7.17,16.1,1.56,24.75,12.42,33.92,11.4,9.63,20.5,2.75,30.8-2.53,24.59-12.6,36.92-30.51,33.7-57.88-1.68-14.26-1-28.88-.07-43.27.72-10.89-5.24-28.06,12.64-28.75,14.56-.56,17.35,15.42,20.4,27.07,8.61,32.79,15.19,66,12.42,99.9-2.15,26.38,9.13,41.19,36.35,45.55-19.89,146.49-258.33,284.23-368.76,232.83,38.17-21.47,74.95-41.81,111.37-62.71,49.17-28.2,96.17-59,129.77-104.55,5.09-6.9,11.84-13.79,13.55-21.54s12.23-18.21.46-24.39c-11-5.79-14.31,6.12-19.18,12.62C688.89,906,640.5,937.24,590.36,966.33c-5.26,3-12.9,11.75-18.6,1.83-2.18-3.79,2.55-11.16,4.13-16.9C596,930,630.68,916.27,617.75,878.05Z"/><path class="cls-2" d="M960.2,441.81c-.59-52-33.77-86.15-73.7-114.49-21-14.92-46.88-23.78-70.8-34.92-11.64-5.42-25.81-9.72-19.43-25.61,5.66-14.1,19.31-8.45,29.93-6.46,62.91,11.81,103.87,53.49,140.48,98.13,44.29,54,63.16,117.73,64,185.77q1,78-1.74,156c-1.57,43.41-18.34,82.48-44.58,117.91-6.79,9.17-15.44,20-27.67,12.9-11.17-6.44-1.3-15.72,2-24.73,15-41.13,5.2-83.68,4.91-125.68-.06-8.12-8.13-12.56-15.9-13.35-9.82-1-12.95,7.85-14.63,14.17-3.4,12.81-2.75,25.88.25,39.21,12.24,54.32-2,104.72-27.91,152.84-4.53,8.42-12.16,15.43-18.77,22.74-6.13,6.78-14.28,12.65-22.9,5.82s2.17-12.09,4.72-18c74.92-174.43-.79-394.91-221.8-433.08-57.16-9.88-115.51-7.24-155.35,44.75-3.54,4.62-6.47,11.2-14.4,6.29-8.66-5.36-10.52-14.09-8.4-22.48,12.29-48.71,33.58-92.24,80.43-120.29,26.9,22,51.23,13.91,74.56-5.74,19.79-2.93,39.48-7.66,59.36-8.49,81.6-3.4,149.36,25.58,204.84,81.66,14.05,23.89,28.51,47.52,48.11,67.88,10.48,10.89,24.35,15,37.48,8.47,14.47-7.23,2.28-19.39.4-28.6C971.37,463.14,964.88,452.64,960.2,441.81ZM829.78,451c-.16,9.92-8.5,21.75,7.68,27.78,10.08,3.77,20,5.06,28.65-2.21,12-10.09,11.13-20.7-.31-30.9,1.22-10.67-4-17.89-12.47-24.61-47.22-37.58-100.13-62.12-163-59.38-23.63,1-52.12-4.86-67.1,22.23-11.16,4.31-30.75,3.33-28.6,18.22,2.41,16.67,21.08,7.89,32.26,8,56.19.62,109.3,13,155.66,42.54,22.1,14.1,32.55,11.13,42.37-9.46Z"/><path class="cls-3" d="M372.19,514.44c16.33,37.95,53.11,58.45,81.66,86-47.06-6.21-76.68-49.91-125.59-52.67-3.4-.2-6.41-7.05-9.53-10.86-38.24-46.79-43.29-102.17-40.21-157.6,1.44-25.78,4.69-45-29.38-46.36-12.17,37.87-3.43,75.46,2.8,113.92,8.83,54.6,42.75,97.09,68.72,143.57-77.81-30.92-116.22-88.56-120.41-166.28-3-55.3,1.89-111-1.84-166.22-3.49-51.71,14.86-89.14,61.77-115.15,22.83-12.66,44.66-27,66.9-40.48,13.85,1,19.54,9.68,22.28,21.2,7.9,33.14,22.45,35,48.4,12.4,28.12-24.45,62.77-36,86.72-30.41-60.58,23.85-81,83-125,121.54-8.12,7.13-13.9,17.07-19.08,26.53-1.52,2.79,1.79,9.09,4.57,12.57,4.06,5.11,9.63,2.4,12.59-1.37,26.45-33.67,66.14-50,102.29-71.05,14.84-5.24,20.59-18.48,28.87-29.5,7.58.24,15.2,0,22.69.85,10.88,1.19,25.84-15.21,32.08,4.21,4.77,14.86-10.36,20.2-21,26.45-23.76,14-47.51,28-71.58,41.47-9.37,5.25-19.67,12.57-14.06,22,5.85,9.82,19.58,4.64,27.43-.23,29.19-18.12,63.4-24.94,94.12-39.45,10.45,5.2,17.8,12.51,18.48,24.36-57.71,31-119.21,57-161.42,108.71-5.69-2-12.95-2.52-16.69-6.24-5.84-5.81,17.59-17.88-3-21.4C384.54,323,379,334.54,374,342.46,337.9,399.35,335,456.77,372.19,514.44Z"/><path class="cls-2" d="M492.59,659c-20.06,32.26-59.52,34.86-89.86,50.71-29.37,15.33-63.93,21.72-96.2,32-27.19-8.32-48.11-1.27-62.06,22.79-33.91-12.57-70.3-20.53-96.85-46.81,27.5-22.38,27.45-44.77-3.12-63.32-24.17-14.67-33.67-37.38-44.71-60-7.3-15-4.22-22.85,14.36-22.31a242.48,242.48,0,0,0,62.46,58.12c28.91,29.79,64.89,46.34,107.17,50,9.33.81,22.84,4.09,27-7.09,4.79-13-8.85-18.88-17.84-24.22-25.53-15.17-51.91-29.05-78-43.44-42.39-29.45-82.2-61.21-106.4-106.93-12.69-28.3-23.13-56.82-9.49-87.69C120.65,498.89,193.2,545.47,265.46,591c61.43,38.72,130.73,52.79,204.3,47.71C481.9,640.9,478.43,658.86,492.59,659Z"/><path class="cls-4" d="M459.88,193.68c-36.15,21-75.84,37.38-102.29,71.05-3,3.77-8.53,6.48-12.59,1.37-2.78-3.48-6.09-9.78-4.57-12.57,5.18-9.46,11-19.4,19.08-26.53,43.94-38.57,64.39-97.69,125-121.54-24-5.63-58.6,6-86.72,30.41-25.95,22.56-40.5,20.74-48.4-12.4-2.74-11.52-8.43-20.22-22.28-21.2,40.19-25,77.2-54.48,121.39-73.61C534.61-8.65,630,6.54,712.08,74.82c-73.32-1.68-138.46,12.09-199,42.91-21.89,11.14-44.2,21.66-65.38,33.94-9.27,5.37-19.39,12.54-17.18,25.86C433.33,194.35,447.55,192.47,459.88,193.68Z"/><path class="cls-2" d="M24.68,610.28C98.37,748,207.94,818.42,371.89,801.8c-74.31,73.28-197.78,89.54-268.71,40.91C22.23,787.21-.79,683.6,24.68,610.28Z"/><path class="cls-5" d="M114.15,572c-18.58-.54-21.66,7.36-14.36,22.31,11,22.63,20.54,45.34,44.71,60,30.57,18.55,30.62,40.94,3.12,63.32-92-78-145.41-173.13-138.17-292.53,4-66.52,33.91-121.69,102-165.47C95.83,314.25,83.09,362,99.07,410.76c-13.64,30.87-3.2,59.39,9.49,87.68-25-.28-32.67,8-18,30C99.66,542.22,106.36,557.46,114.15,572Z"/><path class="cls-3" d="M856.46,827.39c-27.22-4.36-38.5-19.17-36.35-45.55,2.77-33.89-3.81-67.11-12.42-99.9-3.05-11.65-5.84-27.63-20.4-27.07-17.88.69-11.92,17.86-12.64,28.75-1,14.39-1.61,29,.07,43.27,3.22,27.37-9.11,45.28-33.7,57.88-10.3,5.28-19.4,12.16-30.8,2.53-10.86-9.17-19.59-17.82-12.42-33.92,15.62-35.06,19.87-72,15.65-109.79l5.64-6.91c6-1.65,12-4,18.12-4.83,26.31-3.33,32.87-11.69,22.62-38.7-15.72-41.44-46.75-70.1-76.14-101C823.52,541,896.56,675.7,859.75,816.91c-4.1,2.34-6,5.38-3.43,9.79Z"/><path class="cls-4" d="M558.42,219.46c-30.7,14.52-64.91,21.34-94.1,39.46-7.85,4.87-21.58,10.05-27.43.23-5.61-9.42,4.69-16.74,14.06-22,24.07-13.5,47.82-27.49,71.58-41.47,10.63-6.25,25.76-11.59,21-26.45-6.24-19.42-21.2-3-32.08-4.21-7.49-.82-15.11-.61-22.69-.85,74.13-51.6,157.7-65.81,246.91-53.7,31.79,4.31,65.19,8.51,86.38,36.74-8.11,6-16.7,11.1-27.59,9.26-67.26-11.35-124.93,15.58-183,41C591.2,199.22,576.17,212.29,558.42,219.46Z"/><path class="cls-3" d="M713.45,643.59C685.1,688,665.53,738.82,608.83,761.49c-28,11.2-53,29.2-81,40.38-53.85,21.52-99.47,58.22-156.17,74.26-18.11,5.12-33.7,9.33-31.71-17.26,73.45-39,147.78-76.5,220.06-117.29,75.83-42.79,115.77-104.94,109.21-191.94-1.84-24.38-24.89-39.05-23.25-62.9,19.39,2.3,26.09,18,34.12,30.91,22.8,36.63,32.42,77.45,39,119Z"/><path class="cls-1" d="M458.51,560.44c-39.14-15.15-60-52-57.33-97,2.71-45.82,24.63-83,57.93-114.82C517.32,292.91,592,268.13,669.49,249c9.68-2.39,20.28-2.29,30.41-2,11.88.36,28.48-4,29.4,14.18s-15.66,16.3-27.68,16.47c-74.92,1-137,30.25-191.38,76.92Q411,439.74,458.51,560.44Z"/><path class="cls-4" d="M887.67,426.66C832.19,370.58,764.43,341.6,682.83,345c-19.88.83-39.57,5.56-59.37,8.49-12-3.46-18.43-11.88-22.19-22.61,108.72-59.45,266.46-17.61,334.6,88.74C918.91,416.51,903.91,425.36,887.67,426.66Z"/><path class="cls-2" d="M617.75,878.05c12.93,38.22-21.73,52-41.86,73.21-15.18-2.62-26.89,2.74-37.35,13.1-30.5,30.22-70.94,45.53-110.12,61.28-30,12.07-49.64-8.14-67.71-31.73,60.23-30.76,113.65-73.12,187.86-73.73C577.44,920,596.4,894.88,617.75,878.05Z"/><path class="cls-1" d="M320.66,590.4c-26-46.48-59.89-89-68.72-143.57-6.23-38.46-15-76.05-2.8-113.92,34.07,1.39,30.82,20.58,29.38,46.36-3.08,55.43,2,110.81,40.21,157.6,3.12,3.81,6.13,10.66,9.53,10.86,48.91,2.76,78.53,46.46,125.59,52.67,3.57,1.17,9.33,1.43,10.34,3.64,5.28,11.59-5.91,7-9.82,7.32C408.06,614.66,363.66,606.38,320.66,590.4Z"/><path class="cls-5" d="M1015.34,366.83c-49.28-65.7-109.62-118.45-194.67-143.67,53.07-42.07,193.8,40.57,230.36,130.19C1039.4,358.47,1029.82,368.48,1015.34,366.83Z"/><path class="cls-2" d="M636.28,551.34c3,56.9-7.74,97.83-54.66,131.76-42.45,30.7-80.13,66-134.82,76-10.17,1.85-23.92,11.82-29.48-3.43-5.45-14.95,7.68-19.55,20.91-23.88,66.11-21.6,117.85-61.48,161.21-113C615.2,600,608.39,572.24,636.28,551.34Z"/><path class="cls-2" d="M611.45,197.47c58.07-25.41,115.74-52.34,183-41,10.89,1.84,19.48-3.26,27.59-9.26,12.9,9.78,43.1,5,39.29,25.08-3,15.85-28.69,6-44.18,7.27-39.09,3.11-77.68,5.72-113.65,24.06-16.07,8.19-35.9,9.76-54,14.3,0,0-.9.68-.9.68l-12.4,2.28C626.65,214.31,611.66,212.91,611.45,197.47Z"/><path class="cls-4" d="M719.09,636.68c-6.55-41.58-16.17-82.4-39-119-8-12.9-14.73-28.61-34.12-30.91,14.22-7.93,26.07-1.29,37.79,5.49,29.29,30.82,60.32,59.48,76,100.92,10.25,27,3.69,35.37-22.62,38.7C731.05,632.63,725.12,635,719.09,636.68Z"/><path class="cls-2" d="M593.28,535.14c-1.09,21.72-14.85,36.73-41.75,38.39-28.33,1.75-48-17.64-46.82-44.67,1.13-26.41,17.92-38.72,43.77-40.33C574.72,486.9,593.3,505.54,593.28,535.14Z"/><path class="cls-1" d="M372.19,514.44C335,456.77,337.9,399.35,374,342.46c5-7.92,10.56-19.47,21.79-17.56,20.63,3.52-2.8,15.59,3,21.4,3.74,3.72,11,4.27,16.69,6.24C378.17,401,368.51,456.12,372.19,514.44Z"/><path class="cls-3" d="M125.09,320.28c3.17-32.56,12.13-62.8,43.48-86.27V357.14c-7.87,8-2.62,30.23-24.46,22.84-15.91-5.38-14.27-20.45-13.21-33.33C131.68,337.11,141.9,326.2,125.09,320.28Z"/><path class="cls-5" d="M887.67,426.66c16.24-1.3,31.24-10.15,48.2-7,10,5.53,6.58,24.29,24.32,22.19,4.69,10.83,11.18,21.33,13.47,32.6,1.88,9.21,14.07,21.37-.4,28.6-13.13,6.56-27,2.42-37.48-8.47C916.18,474.18,901.72,450.55,887.67,426.66Z"/><path class="cls-2" d="M1015.34,366.83c14.48,1.65,24.06-8.36,35.69-13.48,23.19,34.25,23.45,70.83,15.34,114.91C1037.38,434.75,1030.68,398.83,1015.34,366.83Z"/><path class="cls-1" d="M125.09,320.28c16.81,5.92,6.59,16.83,5.81,26.37-1.06,12.88-2.7,28,13.21,33.33,21.84,7.39,16.59-14.82,24.46-22.84.34,17.93.39,35.82,1.11,53.67.5,12.54-7,22.39-17.18,25.24-9.6,2.68-17.35-6.71-21.5-15.9C116.26,387.54,107.82,354.59,125.09,320.28Z"/><path class="cls-1" d="M244.47,764.49c14-24.06,34.87-31.11,62.06-22.79C305.89,776.47,293.1,781.16,244.47,764.49Z"/><path class="cls-5" d="M611.45,197.47c.21,15.44,15.2,16.84,24.74,23.42l-59.28,22.94c-.67-11.85-8-19.16-18.47-24.36C576.17,212.29,591.2,199.22,611.45,197.47Z"/><path class="cls-5" d="M492.59,659c-14.16-.12-10.69-18.08-22.83-20.25l90.65-22.42C542.19,641.23,519.05,652.42,492.59,659Z"/><path class="cls-5" d="M601.27,330.88c3.76,10.73,10.16,19.15,22.19,22.61-23.32,19.65-47.65,27.73-74.55,5.74C562.91,344.06,581.09,335.81,601.27,330.88Z"/><path class="cls-1" d="M549.32,984.76a21.14,21.14,0,0,1-.35-3.17,60.85,60.85,0,0,1,6.22-.88"/><path class="cls-5" d="M648.59,218.61s.91-.7.9-.68S648.59,218.61,648.59,218.61Z"/><path class="cls-1" d="M856.32,826.7c-2.52-4.41-.67-7.45,3.43-9.79Q858,821.8,856.32,826.7Z"/><path class="cls-5" d="M825,443.21c-9.85,20.6-20.3,23.57-42.4,9.47-46.36-29.58-99.47-41.92-155.66-42.54-11.18-.12-29.85,8.66-32.26-8-2.15-14.89,17.44-13.91,28.62-18.21,21.91,4.2,43.43.26,65-2.67,5.08,14.26,18.31,12.41,30.32,15.38C756.81,406.09,796.44,413.53,825,443.21Z"/><path class="cls-4" d="M688.27,381.25c68-4.2,122.67,22.44,170.27,65.66-6.41,21.42-19.82-1.36-28.76,4.09-1.61-2.59-3.23-5.19-4.83-7.79-28.51-29.68-68.14-37.12-106.36-46.58C706.58,393.66,693.35,395.51,688.27,381.25Z"/><path class="cls-5" d="M829.78,451c8.94-5.45,22.35,17.33,28.76-4.09a18,18,0,0,1,7.27-1.25c11.43,10.21,12.31,20.82.3,30.91-8.64,7.27-18.57,6-28.65,2.21C821.28,472.75,829.62,460.92,829.78,451Z"/><path class="cls-4" d="M114.15,572c-7.79-14.58-14.49-29.82-23.63-43.59-14.63-22-7-30.29,18-30,24.2,45.73,64,77.49,106.39,106.94-16.66,2.89-27.71,13.54-38.34,24.78A242.48,242.48,0,0,1,114.15,572Z"/><path class="cls-5" d="M176.61,630.16c10.63-11.24,21.68-21.89,38.34-24.78,26.05,14.39,52.43,28.27,78,43.44,9,5.34,22.63,11.24,17.84,24.22-4.13,11.18-17.64,7.9-27,7.09C241.5,676.5,205.52,660,176.61,630.16Z"/></svg>